<?xml version="1.0" encoding="utf-8"?>
<!-- Generator: Adobe Illustrator 17.1.0, SVG Export Plug-In . SVG Version: 6.00 Build 0)  -->
<!DOCTYPE svg PUBLIC "-//W3C//DTD SVG 1.1//EN" "http://www.w3.org/Graphics/SVG/1.1/DTD/svg11.dtd">
<svg version="1.1" id="Layer_1" xmlns="http://www.w3.org/2000/svg" xmlns:xlink="http://www.w3.org/1999/xlink" x="0px" y="0px"
	 viewBox="0 0 695 185" enable-background="new 0 0 695 185" xml:space="preserve">
<polygon fill="#CCCCCC" points="177.2,128.5 177.2,57.7 186.4,57.7 229.7,114.8 229.7,57.7 238.4,57.7 238.4,128.5 229.2,128.5 
	185.9,71 185.9,128.5 "/>
<path fill="#CCCCCC" d="M308.7,125.7c-5.7,2.2-11.9,3.3-18.5,3.3c-25.6,0-38.5-12.3-38.5-36.9c0-23.3,12.4-34.9,37.1-34.9
	c7.1,0,13.7,1,19.8,3v7.9c-6.1-2.3-12.4-3.5-18.8-3.5c-19.3,0-29,9.2-29,27.5c0,19.6,9.5,29.5,28.5,29.5c3,0,6.4-0.4,10.1-1.2V96.3
	h9.2L308.7,125.7L308.7,125.7z"/>
<path fill="#CCCCCC" d="M323.3,101.2V57.7h9.2v43.5c0,13.6,6.8,20.4,20.3,20.4c13.5,0,20.3-6.8,20.3-20.4V57.7h9.2v43.5
	c0,18.6-9.8,27.8-29.5,27.8C333.1,129,323.3,119.7,323.3,101.2z"/>
<polygon fill="#CCCCCC" points="407.7,57.7 407.7,121.1 444.8,121.1 444.8,128.5 398.6,128.5 398.6,57.7 "/>
<polygon fill="#CCCCCC" points="458,128.5 448.5,128.5 483.7,48.4 518.9,128.5 508.7,128.5 499.6,106.2 476.1,106.2 478.7,98.8 
	496.5,98.8 483.3,66.7 "/>
<path fill="#CCCCCC" d="M528.5,128.5V57.7h30.2c13.5,0,20.2,5.7,20.2,17c0,9.2-6.6,16-19.8,20.4l24.3,33.4h-12.1l-22.5-31.8v-6
	c13.5-2.2,20.3-7.3,20.3-15.6c0-6.5-3.8-9.8-11.3-9.8h-20.2v63.2L528.5,128.5L528.5,128.5L528.5,128.5z"/>
<path fill="#CCCCCC" d="M617.8,57.7v50.4c0,13.6-8,20.4-24,20.4v-7.4c9.9,0,14.9-4.3,14.9-13V57.7H617.8z"/>
<path fill="#CCCCCC" d="M634.1,126v-8.4c7.4,2.6,15.4,4,24.1,4c12.2,0,18.3-4.5,18.3-13.4c0-7.6-4.5-11.4-13.5-11.4h-9.1
	c-14.8,0-22.2-6.4-22.2-19.3c0-13.5,9.5-20.3,28.5-20.3c8.2,0,15.9,1,23,3v8.4c-7.1-2.6-14.8-4-23-4c-12.9,0-19.3,4.3-19.3,12.9
	c0,7.6,4.4,11.4,13.1,11.4h9.1c15.1,0,22.6,6.4,22.6,19.3c0,13.9-9.1,20.8-27.4,20.8C649.6,129,641.6,128,634.1,126z"/>
<polygon fill="#FFFFFA" points="179.6,126.2 179.6,55.4 188.7,55.4 232,112.4 232,55.4 240.7,55.4 240.7,126.2 231.6,126.2 
	188.2,68.7 188.2,126.2 "/>
<path fill="#FFFFFA" d="M311,123.4c-5.7,2.2-11.9,3.3-18.5,3.3c-25.6,0-38.5-12.3-38.5-36.9c0-23.3,12.4-34.9,37.1-34.9
	c7.1,0,13.7,1,19.8,3v7.9c-6.1-2.3-12.4-3.5-18.8-3.5c-19.3,0-29,9.2-29,27.5c0,19.6,9.5,29.5,28.5,29.5c3,0,6.4-0.4,10.1-1.2V94
	h9.2L311,123.4L311,123.4z"/>
<path fill="#FFFFFA" d="M325.6,98.9V55.4h9.2v43.5c0,13.6,6.8,20.4,20.3,20.4c13.5,0,20.3-6.8,20.3-20.4V55.4h9.2v43.5
	c0,18.6-9.8,27.8-29.5,27.8C335.4,126.7,325.6,117.4,325.6,98.9z"/>
<polygon fill="#FFFFFA" points="410,55.4 410,118.8 447.1,118.8 447.1,126.2 400.9,126.2 400.9,55.4 "/>
<polygon fill="#FFFFFA" points="460.3,126.2 450.8,126.2 486,46.1 521.2,126.2 511,126.2 501.9,103.9 478.5,103.9 481,96.5 
	498.8,96.5 485.6,64.4 "/>
<path fill="#FFFFFA" d="M530.8,126.2V55.4H561c13.5,0,20.2,5.7,20.2,17c0,9.2-6.6,16-19.7,20.4l24.3,33.4h-12.1l-22.5-31.8v-6
	c13.5-2.2,20.3-7.3,20.3-15.6c0-6.5-3.8-9.8-11.3-9.8H540v63.2C540,126.2,530.8,126.2,530.8,126.2z"/>
<path fill="#A6120D" d="M620.1,55.4v50.4c0,13.6-8,20.4-24,20.4v-7.4c9.9,0,14.9-4.3,14.9-13V55.4H620.1z"/>
<path fill="#A6120D" d="M636.5,123.7v-8.4c7.4,2.6,15.4,4,24.1,4c12.2,0,18.3-4.5,18.3-13.4c0-7.6-4.5-11.4-13.5-11.4h-9.1
	c-14.8,0-22.2-6.4-22.2-19.3c0-13.5,9.5-20.3,28.5-20.3c8.2,0,15.9,1,23,3v8.4c-7.1-2.6-14.8-4-23-4c-12.9,0-19.3,4.3-19.3,12.9
	c0,7.6,4.4,11.4,13.1,11.4h9.1c15.1,0,22.6,6.4,22.6,19.3c0,13.9-9.1,20.8-27.4,20.8C651.9,126.7,643.9,125.7,636.5,123.7z"/>
<path fill="#FFFFFA" d="M551.9,164l-3.4-10.2h-2.4l4.6,12.9c-0.1,0.3-0.3,0.7-0.5,1.3c-0.2,0.6-0.4,0.9-0.4,1
	c-0.1,0.2-0.3,0.3-0.5,0.5c-0.2,0.1-0.5,0.2-0.9,0.2c-0.1,0-0.3,0-0.4,0c-0.2,0-0.4-0.1-0.8-0.2v1.9c0.2,0.1,0.4,0.1,0.6,0.1
	c0.2,0,0.4,0,0.7,0c1.2,0,2.1-0.4,2.6-1.1c0.5-0.7,1.4-2.7,2.6-5.9c0.5-1.4,1.2-3.1,1.9-5.3c1-2.9,1.7-4.7,2-5.5h-2.3L551.9,164z
	 M539.4,164.9c-1.5,0-2.6-0.7-3.1-2.1c-0.3-0.7-0.4-1.7-0.4-2.9c0-1.6,0.4-2.8,1.1-3.5c0.7-0.7,1.6-1.1,2.5-1.1
	c1.1,0,1.9,0.4,2.5,1.3c0.6,0.9,0.9,2,0.9,3.3c0,1.5-0.3,2.7-0.9,3.6C541.4,164.4,540.5,164.9,539.4,164.9z M533.9,166.3h1.9v-1.6
	c0.4,0.6,0.9,1,1.3,1.3c0.7,0.5,1.5,0.7,2.4,0.7c1.7,0,3-0.7,4-2c1-1.3,1.4-3,1.4-4.9c0-2.1-0.5-3.7-1.5-4.8c-1-1.1-2.2-1.6-3.8-1.6
	c-0.8,0-1.5,0.2-2.1,0.5c-0.6,0.3-1.2,0.8-1.7,1.4V149h-2.1L533.9,166.3L533.9,166.3z"/>
<g>
	<polygon fill="#B3B3B3" points="83.2,0.9 0.6,30 13.6,138.3 83.3,176.6 153.4,137.8 166.5,29.5 	"/>
	<polygon fill="#A6120D" points="158.2,35.7 83.1,10.1 83.1,167.5 146,132.6 	"/>
	<polygon fill="#DD1B16" points="9.8,36.2 21,133.1 83,167.5 83,10.1 	"/>
	<path fill="#F2F2F2" d="M103.7,93.9L83,103.5H61.2L51,129.2l-19.1,0.4L83.1,15.8L103.7,93.9z M101.7,89L83.2,52.3L68,88.4H83
		L101.7,89z"/>
	<polygon fill="#B3B3B3" points="83,15.8 83.2,52.3 100.5,88.4 83.1,88.4 83,103.5 107.1,103.5 118.3,129.5 136.5,129.9 	"/>
</g>
<path fill="#FFFFFA" d="M653.2,148.8c0.9,0.8,2.8,2.3,2.8,5.4c0,2.9-1.7,4.3-3.3,5.6c-0.5,0.5-1.1,1.1-1.1,1.9c0,0.9,0.6,1.3,1,1.7
	l1.4,1.1c1.7,1.5,3.3,2.8,3.3,5.6c0,3.7-3.6,7.5-10.4,7.5c-5.8,0-8.5-2.7-8.5-5.7c0-1.4,0.7-3.5,3.1-4.8c2.5-1.5,5.8-1.7,7.6-1.8
	c-0.6-0.7-1.2-1.5-1.2-2.7c0-0.7,0.2-1.1,0.4-1.5c-0.4,0-0.9,0.1-1.3,0.1c-4.2,0-6.6-3.1-6.6-6.2c0-1.8,0.8-3.9,2.5-5.3
	c2.3-1.9,5-2.2,7.1-2.2h8.2l-2.5,1.4L653.2,148.8 M650.4,166.5c-0.3,0-0.5,0-0.9,0c-0.4,0-2.5,0.1-4.2,0.6c-0.9,0.3-3.4,1.3-3.4,4.1
	s2.7,4.8,7,4.8c3.8,0,5.8-1.8,5.8-4.3C654.7,169.7,653.4,168.6,650.4,166.5z M651.5,158.9c0.9-0.9,1-2.2,1-2.9c0-2.9-1.7-7.3-5-7.3
	c-1,0-2.1,0.5-2.8,1.3c-0.7,0.8-0.9,1.9-0.9,2.9c0,2.7,1.5,7.1,5,7.1C649.8,160,650.9,159.6,651.5,158.9z M628.2,165.8
	c-6.3,0-9.7-4.9-9.7-9.4c0-5.2,4.2-9.6,10.3-9.6c5.8,0,9.5,4.6,9.5,9.4C638.2,160.9,634.6,165.8,628.2,165.8 M633.1,162.6
	c1-1.3,1.2-2.9,1.2-4.4c0-3.5-1.7-10.1-6.6-10.1c-1.3,0-2.6,0.5-3.6,1.4c-1.5,1.4-1.8,3.1-1.8,4.8c0,3.9,1.9,10.4,6.7,10.4
	C630.6,164.6,632.2,163.9,633.1,162.6z M606.7,165.8c-6.3,0-9.7-4.9-9.7-9.4c0-5.2,4.2-9.6,10.3-9.6c5.8,0,9.5,4.6,9.5,9.4
	C616.8,160.9,613.2,165.8,606.7,165.8 M611.7,162.6c1-1.3,1.2-2.9,1.2-4.4c0-3.5-1.7-10.1-6.6-10.1c-1.3,0-2.6,0.5-3.6,1.4
	c-1.5,1.4-1.8,3.1-1.8,4.8c0,3.9,1.9,10.4,6.7,10.4C609.2,164.6,610.7,163.9,611.7,162.6z M594,165.2v-4.9c0-0.4,0-1.6,0.1-1.9
	c0.1-0.3,0.1-0.4,0.4-0.6l1-1h-8.4l-3.2,1.7l6-0.3v6.4c-1.2,0.5-2.5,1-5.1,1c-8.7,0-14.1-7.1-14.1-14.5c0-7,4.7-11.8,11-11.8
	c4.7,0,7.2,2.4,8.5,3.7l-1,1.6l1.4-0.3l3.3-3.1c-0.9-0.6-2.3-1.6-5.3-2.5c-1.9-0.5-3.9-0.8-6.1-0.8c-10.2,0-16.1,7.2-16.1,14.9
	c0,6.3,4.2,14.4,15.2,14.4c2.2,0,4.3-0.3,6.6-0.7L594,165.2 M665.8,164.1c-1.3-0.1-1.6-0.4-1.6-1.9v-22.6c0-0.1,0-0.2,0-0.3
	c0.2-1.4,0.6-1.6,1.8-2.4h-5.7l-3,1.4h3v0l0,0V163c0,0.8-0.2,0.9-1.1,2.1h7.1l1.5-0.9C667.1,164.2,666.4,164.1,665.8,164.1
	 M682,164.4c-0.4,0.2-0.9,0.5-1.3,0.7c-1.3,0.6-2.7,0.8-3.8,0.8c-1.3,0-3.2-0.1-5.3-1.5c-2.8-2-4-5.4-4-8.4c0-6.1,5-9.1,9.1-9.1
	c1.4,0,2.9,0.4,4.1,1.1c2,1.3,2.5,3,2.8,3.9l-9.3,3.8l-3,0.2c1,5,4.4,8,8.2,8c2,0,3.5-0.7,4.8-1.4L682,164.4 M678.3,152.6
	c0.8-0.3,1.1-0.5,1.1-1.1c0-1.6-1.8-3.4-3.9-3.4c-1.6,0-4.6,1.2-4.6,5.5c0,0.7,0.1,1.4,0.1,2.1L678.3,152.6z"/>
</svg>
