<?xml version="1.0" encoding="utf-8"?>
<!-- Generator: Adobe Illustrator 17.1.0, SVG Export Plug-In . SVG Version: 6.00 Build 0)  -->
<!DOCTYPE svg PUBLIC "-//W3C//DTD SVG 1.1//EN" "http://www.w3.org/Graphics/SVG/1.1/DTD/svg11.dtd">
<svg version="1.1" id="Layer_1" xmlns="http://www.w3.org/2000/svg" xmlns:xlink="http://www.w3.org/1999/xlink" x="0px" y="0px"
	 viewBox="0 0 621 382.5" enable-background="new 0 0 621 382.5" xml:space="preserve">
<rect x="-0.2" y="-0.1" fill="#FFFFFA" width="621" height="383"/>
<g>
	<g>
		<path fill="none" stroke="#000000" stroke-width="3" stroke-miterlimit="10" d="M502.1,126.9c-13.9-26.3-41.6-44.2-73.4-44.2
			c-45.8,0-83,37.2-83,83s37.2,83,83,83c33.3,0,62-19.6,75.2-47.9"/>
		<g>
			<polygon points="503.8,119.3 501.6,126.2 494.8,124 496.8,127.8 503.6,130 505.8,123.1 			"/>
		</g>
	</g>
</g>
<g>
	<g>
		<path fill="none" stroke="#000000" stroke-width="3" stroke-miterlimit="10" d="M114.6,126.9c13.9-26.3,41.6-44.2,73.4-44.2
			c45.8,0,83,37.2,83,83s-37.2,83-83,83c-33.3,0-62-19.6-75.2-47.9"/>
		<g>
			<polygon points="121.9,124 115,126.2 112.9,119.3 110.9,123.1 113,130 119.9,127.8 			"/>
		</g>
	</g>
</g>
<text transform="matrix(1 0 0 1 418.9773 174.3233)" font-family="'MyriadPro-Regular'" font-size="21.6491">Angular Digest Cycle</text>
<text transform="matrix(1 0 0 1 13.6418 159.3233)"><tspan x="0" y="0" font-family="'MyriadPro-Regular'" font-size="21.6491">Famo.us Render Cycle</tspan><tspan x="43.1" y="26" font-family="'MyriadPro-Regular'" font-size="21.6491">(engine tick)</tspan></text>
<g>
	<rect x="291.3" y="34.4" fill="none" stroke="#3AC3CE" stroke-width="3" stroke-miterlimit="10" width="33" height="271"/>
	<rect x="297.3" y="41.4" fill="none" stroke="#3AC3CE" stroke-width="3" stroke-miterlimit="10" width="21" height="21"/>
	<rect x="297.3" y="71.4" fill="none" stroke="#3AC3CE" stroke-width="3" stroke-miterlimit="10" width="21" height="21"/>
	<rect x="297.3" y="100.4" fill="none" stroke="#3AC3CE" stroke-width="3" stroke-miterlimit="10" width="21" height="21"/>
	<rect x="297.3" y="130.4" fill="none" stroke="#3AC3CE" stroke-width="3" stroke-miterlimit="10" width="21" height="21"/>
	<rect x="297.3" y="159.4" fill="none" stroke="#3AC3CE" stroke-width="3" stroke-miterlimit="10" width="21" height="21"/>
	<rect x="297.3" y="189.4" fill="none" stroke="#3AC3CE" stroke-width="3" stroke-miterlimit="10" width="21" height="21"/>
	<rect x="297.3" y="218.4" fill="none" stroke="#3AC3CE" stroke-width="3" stroke-miterlimit="10" width="21" height="21"/>
	<rect x="297.3" y="277.4" fill="none" stroke="#3AC3CE" stroke-width="3" stroke-miterlimit="10" width="21" height="21"/>
	<rect x="297.3" y="248.4" fill="none" stroke="#3AC3CE" stroke-width="3" stroke-miterlimit="10" width="21" height="21"/>
</g>
<text transform="matrix(1 0 0 1 251.745 23.8581)" fill="#3AC3CE" font-family="'MyriadPro-Semibold'" font-size="14">$parse’d functions</text>
<text transform="matrix(1 0 0 1 265.3808 353.8405)" fill="#06172F" font-family="'MyriadPro-Semibold'" font-size="14">unidirectional</text>
<text transform="matrix(1 0 0 1 369.2058 311.8581)"><tspan x="0" y="0" font-family="'MyriadPro-Regular'" font-size="12">$observe expressions</tspan><tspan x="-42.8" y="14.4" font-family="'MyriadPro-Regular'" font-size="12">$parse and store if expression changes</tspan></text>
<g>
	<g>
		<path fill="none" stroke="#000000" stroke-width="3" stroke-miterlimit="10" d="M424.8,258.9c0,0-7.8,43.1-87.2,39.7"/>
		<g>
			<polygon points="343.8,293.7 338.5,298.5 343.3,303.8 339,303.7 334.2,298.4 339.4,293.5 			"/>
		</g>
	</g>
</g>
<g>
	<g>
		<path fill="none" stroke="#000000" stroke-width="3" stroke-miterlimit="10" d="M195.1,74.4c3.8-10.2,20.8-40.2,89.7-36.2"/>
		<g>
			<polygon points="201.8,70.2 195.4,73.6 192.1,67.2 190.8,71.4 194.2,77.7 200.5,74.4 			"/>
		</g>
	</g>
</g>
<text transform="matrix(1 0 0 1 157.195 29.342)"><tspan x="0" y="0" font-family="'MyriadPro-Regular'" font-size="12">Read-only</tspan><tspan x="-7.9" y="14.4" font-family="'MyriadPro-Regular'" font-size="12">function calls</tspan></text>
<g>
	<g>
		<line fill="none" stroke="#06172F" stroke-width="5" stroke-miterlimit="10" x1="197.8" y1="361.4" x2="424.8" y2="361.4"/>
		<g>
			<polygon fill="#06172F" points="207.5,368.9 199,360.9 207.5,352.9 200.3,352.9 191.8,360.9 200.3,368.9 			"/>
		</g>
	</g>
</g>
</svg>
