<?xml version="1.0" encoding="utf-8"?>
<!-- Generator: Adobe Illustrator 17.1.0, SVG Export Plug-In . SVG Version: 6.00 Build 0)  -->
<!DOCTYPE svg PUBLIC "-//W3C//DTD SVG 1.1//EN" "http://www.w3.org/Graphics/SVG/1.1/DTD/svg11.dtd">
<svg version="1.1" id="Layer_1" xmlns="http://www.w3.org/2000/svg" xmlns:xlink="http://www.w3.org/1999/xlink" x="0px" y="0px"
	 viewBox="0 0 353.1 80.7" enable-background="new 0 0 353.1 80.7" xml:space="preserve">
<g>
	<path fill="#FFFFFA" d="M345.6,7.6v65.6H7.6V7.6H345.6 M353.1,0H0v80.7h353.1V0L353.1,0z"/>
	<g>
		<path fill="#FFFFFA" d="M40.1,29v30h-7.6V29H21.9v-7.3h29V29H40.1z"/>
		<path fill="#FFFFFA" d="M81,59V43.4H65.6V59H58V21.7h7.6v14.4H81V21.7h7.6V59L81,59L81,59z"/>
		<path fill="#FFFFFA" d="M128.6,40.4c0,2.8-0.3,5.5-1,7.8c-0.8,2.3-1.8,4.3-3.3,6.1c-1.5,1.8-3,3-5,4c-2,1-4.3,1.5-6.8,1.5
			s-4.8-0.5-6.8-1.5c-2-1-3.8-2.3-5-4c-1.5-1.8-2.5-3.8-3.3-6.1s-1-5-1-7.8c0-2.8,0.3-5.5,1-7.8c0.8-2.3,1.8-4.3,3.3-6.1s3-3,5-4
			c2-1,4.3-1.5,6.8-1.5s4.8,0.5,6.8,1.5c2,1,3.8,2.3,5,4c1.5,1.8,2.5,3.8,3.3,6.1C128.1,34.8,128.6,37.3,128.6,40.4z M120.8,40.4
			c0-1.8-0.3-3.3-0.5-4.8s-0.8-2.8-1.5-3.8c-0.8-1-1.5-2-2.8-2.5c-1-0.5-2.3-1-3.8-1s-2.8,0.3-3.8,1c-1,0.8-2,1.5-2.8,2.5
			c-0.8,1-1.3,2.3-1.5,3.8s-0.5,3-0.5,4.8s0.3,3.3,0.5,4.8s0.8,2.8,1.5,3.8c0.8,1,1.5,2,2.8,2.5c1,0.5,2.3,1,3.8,1s2.8-0.3,3.8-1
			c1-0.5,2-1.5,2.8-2.5c0.8-1,1.3-2.3,1.5-3.8C120.8,43.6,120.8,41.9,120.8,40.4z"/>
		<path fill="#FFFFFA" d="M162.7,59V45.4c0-0.5,0-1.3,0-2s0-1.5,0-2.5c0-0.8,0-1.5,0-2.3s0-1.3,0-1.5c-0.3,0.8-0.8,1.8-1.3,2.8
			c-0.5,1.3-1,2.3-1.5,3.3l-7.6,16.6l-7.6-16.6c-0.5-1-1-2.3-1.5-3.3c-0.5-1.3-0.8-2-1.3-2.8c0,0.3,0,1,0,1.5c0,0.8,0,1.5,0,2.3
			s0,1.5,0,2.5c0,0.8,0,1.5,0,2v13.9h-7.3V21.7h7.3l7.8,16.9c0.3,0.5,0.5,1,0.8,1.8c0.3,0.8,0.5,1.3,0.8,1.8s0.5,1,0.8,1.5
			s0.3,1,0.5,1.3c0.3-0.8,0.5-1.8,1-2.8s1-2.3,1.5-3.3l7.6-16.9h7.3v37.3L162.7,59L162.7,59z"/>
		<path fill="#FFFFFA" d="M203.8,59l-3-8.3h-13.6l-3,8.3h-8.1l14.4-37.3h7.3L211.9,59H203.8z M195.7,36.8c-0.5-1-0.8-2.3-1-3.3
			c-0.3-1-0.5-2-0.8-2.5c-0.3,0.8-0.5,1.5-0.8,2.5c-0.3,1-0.8,2-1,3.3l-2.5,6.8h8.6L195.7,36.8z"/>
		<path fill="#FFFFFA" d="M244.9,47.7c0,1.8-0.3,3.5-0.8,4.8c-0.5,1.5-1.5,2.8-2.8,3.8c-1.3,1-2.8,1.8-4.5,2.5
			c-1.8,0.5-4,0.8-6.6,0.8c-3,0-6.1-0.5-8.6-1.8c-2.5-1.3-4.5-2.8-6.1-5l5.3-4.8c1.3,1.5,2.8,2.5,4.5,3.3c1.5,0.8,3.3,1,5,1
			c2.3,0,3.8-0.3,5-1c1-0.8,1.5-1.8,1.5-3c0-0.5,0-1-0.3-1.5c-0.3-0.5-0.5-0.8-1.3-1.3c-0.5-0.5-1.5-0.8-2.5-1c-1-0.3-2.5-0.8-4.3-1
			c-1.8-0.5-3.3-0.8-4.8-1.5c-1.5-0.8-2.8-1.3-3.8-2c-1-0.8-1.8-1.8-2.5-3c-0.5-1.3-0.8-2.8-0.8-4.5s0.3-3.3,1-4.5
			c0.8-1.3,1.8-2.5,2.8-3.5c1-1,2.5-1.8,4.3-2.3c1.5-0.5,3.3-0.8,5.3-0.8c3,0,5.5,0.5,7.6,1.5c2.3,1,4.3,2.5,6.1,4.3l-5.3,5.3
			c-1.3-1.3-2.5-2.3-3.8-2.8c-1.3-0.8-3-1-4.5-1c-1,0-1.8,0-2.5,0.3c-0.8,0.3-1.3,0.5-1.8,0.8c-0.5,0.3-0.8,0.8-1,1
			c-0.3,0.5-0.3,0.8-0.3,1.3c0,0.5,0,1,0.3,1.5c0.3,0.5,0.8,0.8,1.3,1s1.3,0.5,2.3,1c1,0.5,2.3,0.5,3.8,1c1.5,0.3,3,0.8,4.5,1.3
			c1.5,0.5,2.8,1.3,4,2c1.3,0.8,2.3,2,3,3.3C244.7,43.9,244.9,45.7,244.9,47.7z"/>
		<path fill="#FFFFFA" d="M291.6,49.2c0,1.5-0.3,2.8-0.8,4s-1.3,2.3-2.5,3.3c-1,1-2.3,1.8-3.8,2.3c-1.5,0.5-3.3,0.8-5.3,0.8
			c-2.5,0-5-0.5-7.1-1.5c-2.3-1-4-2.3-5.5-3.8l2.8-3c1.5,1.3,3,2.5,4.5,3.3c1.8,0.8,3.5,1.3,5.3,1.3c2.5,0,4.5-0.5,5.8-1.8
			c1.5-1.3,2.3-2.8,2.3-4.8c0-0.8-0.3-1.5-0.5-2.3s-0.8-1.3-1.5-2c-0.8-0.5-1.5-1.3-2.8-1.8s-2.5-1.3-4.3-1.8c-2-0.8-3.8-1.5-5-2.3
			s-2.5-1.5-3.3-2.3c-0.8-0.8-1.5-1.8-1.8-2.8s-0.5-2.3-0.5-3.5c0-1.5,0.3-2.8,0.8-4s1.3-2.3,2.3-3c1-0.8,2.3-1.5,3.8-2
			c1.5-0.5,3-0.8,4.8-0.8c2.5,0,4.5,0.3,6.3,1c1.8,0.8,3.5,1.8,5,3l-2.8,3.3c-1.3-1.3-2.8-2-4-2.5c-1.3-0.5-3-1-4.8-1
			c-1.3,0-2.3,0.3-3.3,0.5c-1,0.3-1.8,0.8-2.3,1.3c-0.5,0.5-1,1-1.3,1.8s-0.5,1.3-0.5,2c0,0.8,0,1.5,0.3,2c0.3,0.5,0.8,1.3,1.3,1.8
			c0.8,0.5,1.5,1.3,2.8,1.8s2.8,1.3,4.5,1.8c2,0.8,3.8,1.5,5.3,2.3s2.5,1.5,3.3,2.5c0.8,1,1.5,1.8,1.8,3
			C291.3,46.7,291.6,47.9,291.6,49.2z"/>
		<path fill="#FFFFFA" d="M312,25.5V59h-4.3V25.5h-11.1v-3.8h26.2v3.8H312z"/>
		<path fill="#FFFFFA" d="M329.9,56.2c0,1-0.3,1.8-1,2.5s-1.5,1-2.5,1s-1.8-0.3-2.5-1c-0.8-0.8-1-1.5-1-2.5c0-1,0.3-1.8,1-2.5
			c0.8-0.8,1.5-1,2.5-1s1.8,0.3,2.5,1C329.7,54.5,329.9,55.2,329.9,56.2z"/>
	</g>
</g>
</svg>
